<?xml version="1.0" standalone="no"?>
<!DOCTYPE svg PUBLIC "-//W3C//DTD SVG 20010904//EN"
 "http://www.w3.org/TR/2001/REC-SVG-20010904/DTD/svg10.dtd">
<svg version="1.0" xmlns="http://www.w3.org/2000/svg"
 width="1430.000000pt" height="1430.000000pt" viewBox="0 0 1430.000000 1430.000000"
 preserveAspectRatio="xMidYMid meet">

<g transform="translate(0.000000,1430.000000) scale(0.100000,-0.100000)"
fill="#000000" stroke="none">
<path d="M6445 13234 c-11 -1 -69 -8 -130 -14 -562 -60 -1059 -268 -1590 -663
-365 -273 -689 -637 -914 -1027 -281 -487 -436 -985 -520 -1676 -16 -132 -14
-497 3 -608 8 -50 22 -156 31 -236 30 -254 100 -561 179 -780 18 -52 41 -115
50 -140 9 -25 20 -54 26 -65 5 -11 21 -49 36 -85 33 -82 121 -258 181 -364
348 -609 917 -1135 1563 -1443 606 -290 1289 -364 1980 -217 199 43 435 112
544 159 17 8 56 24 86 36 87 36 309 152 411 215 579 355 1089 963 1399 1664
308 698 388 1515 230 2346 -123 640 -400 1222 -808 1696 -321 372 -698 675
-1072 861 -184 92 -250 120 -400 171 -277 93 -512 141 -806 166 -107 9 -429
12 -479 4z m679 -559 c472 -58 867 -201 1250 -453 55 -36 107 -71 115 -78 9
-7 54 -43 101 -80 207 -164 479 -453 623 -664 217 -315 344 -569 450 -895 179
-551 222 -1240 112 -1809 -93 -483 -268 -907 -546 -1322 -170 -254 -411 -525
-604 -680 -33 -27 -62 -51 -65 -54 -6 -7 -129 -96 -195 -142 -219 -151 -553
-296 -868 -378 -435 -113 -864 -126 -1282 -39 -632 131 -1268 537 -1707 1089
-54 69 -104 132 -111 140 -53 66 -190 295 -256 426 -184 368 -315 807 -365
1229 -69 577 22 1254 241 1785 43 104 163 347 205 415 346 556 741 938 1248
1207 212 112 457 198 765 268 87 20 155 30 275 40 69 6 145 12 170 14 75 6
326 -4 444 -19z"/>
<path d="M6510 12225 c-213 -34 -455 -131 -630 -253 -83 -58 -236 -211 -282
-282 -218 -333 -253 -775 -97 -1226 178 -515 482 -945 768 -1088 121 -61 164
-71 301 -70 109 0 136 3 210 28 168 55 275 123 420 267 84 83 107 110 78 93
-75 -44 -198 -120 -218 -134 -60 -41 -182 -100 -260 -125 -121 -39 -262 -39
-373 -1 -185 63 -398 259 -582 537 -126 189 -247 490 -281 698 -31 191 -8 404
62 581 26 67 116 221 140 241 10 9 23 -9 62 -88 56 -112 128 -234 185 -311 99
-135 269 -310 423 -435 86 -69 293 -214 359 -251 17 -9 44 -25 60 -36 17 -10
41 -25 55 -33 102 -57 126 -71 135 -77 11 -8 39 -23 505 -267 562 -295 840
-504 1005 -755 277 -419 241 -946 -114 -1680 -53 -109 -125 -244 -220 -412
-12 -21 -21 -40 -19 -41 4 -4 133 168 288 385 274 384 425 681 509 1000 68
261 49 544 -51 742 -146 290 -429 528 -968 816 -36 19 -103 56 -150 82 -47 26
-141 78 -210 115 -69 38 -143 78 -165 90 -22 12 -67 37 -100 55 -194 106 -315
181 -482 297 -82 57 -253 213 -339 309 -218 243 -380 589 -350 746 8 39 48 88
93 112 18 9 85 30 150 47 112 30 128 32 308 32 173 1 199 -1 290 -25 314 -81
548 -248 702 -502 108 -180 153 -346 184 -680 7 -71 15 -122 20 -115 12 22 28
160 35 297 17 330 -71 653 -236 867 -261 338 -759 522 -1220 450z"/>
<path d="M5265 9553 c-221 -40 -387 -130 -540 -295 -86 -93 -138 -197 -165
-332 -61 -303 33 -633 234 -819 100 -92 315 -218 474 -278 70 -26 109 -58 119
-98 3 -14 1 -59 -6 -101 -41 -258 -38 -341 17 -478 29 -69 100 -190 126 -211
6 -5 -8 67 -31 162 -51 204 -53 259 -18 423 14 64 25 137 25 162 0 142 -74
222 -315 344 -214 108 -319 205 -395 363 -57 119 -74 191 -74 325 -1 126 18
202 76 309 164 303 550 493 868 426 338 -71 572 -398 530 -740 -20 -164 -74
-305 -182 -476 -35 -54 -71 -113 -81 -129 l-19 -30 31 0 c39 0 136 -32 188
-62 56 -32 167 -122 253 -204 151 -145 331 -300 413 -356 92 -63 143 -82 217
-81 100 0 172 37 261 131 190 199 339 518 529 1130 66 212 58 205 -113 -103
-89 -161 -226 -393 -322 -545 -64 -102 -238 -358 -258 -380 -45 -51 -79 -70
-121 -70 -53 0 -95 28 -194 132 -243 254 -354 340 -593 459 -75 38 -90 53 -71
74 14 17 70 156 91 230 59 204 55 419 -10 595 -149 399 -513 601 -944 523z"/>
<path d="M8830 6210 c-189 -17 -513 -107 -760 -211 -84 -35 -359 -178 -407
-211 -41 -28 -100 -94 -92 -103 3 -2 101 27 219 66 269 87 320 99 432 99 142
0 278 -45 548 -180 77 -38 159 -77 182 -86 132 -49 304 -106 345 -114 200 -41
222 -44 428 -44 175 0 232 4 340 23 412 73 685 190 673 289 -5 41 -39 52 -163
52 -191 0 -411 57 -638 164 -131 62 -126 60 -331 142 -174 70 -286 101 -416
115 -95 10 -246 9 -360 -1z"/>
<path d="M1646 4259 l-27 -31 3 -464 3 -464 -106 0 c-94 0 -111 3 -158 26 -83
42 -121 121 -101 211 26 112 137 180 235 143 20 -8 27 -7 31 5 7 16 -30 81
-48 87 -9 3 -9 15 0 46 11 36 10 51 -4 102 -9 34 -20 62 -24 65 -3 2 -12 -19
-19 -48 -15 -60 -32 -85 -130 -187 -98 -103 -126 -162 -126 -265 0 -91 19
-137 77 -191 72 -69 158 -87 384 -82 143 3 149 4 145 23 -3 11 -6 221 -8 467
-3 322 -1 454 8 469 10 19 5 27 -37 70 -27 27 -54 49 -60 49 -7 0 -24 -14 -38
-31z"/>
<path d="M1916 4259 l-26 -31 0 -414 0 -414 565 0 566 0 -17 31 c-21 41 -33
359 -15 410 11 32 10 35 -38 83 -48 48 -51 49 -76 36 -14 -7 -28 -23 -30 -34
-3 -12 -6 -118 -7 -236 l-3 -215 -395 0 -395 0 -3 344 c-2 259 1 347 10 358
10 13 3 24 -39 64 -28 27 -56 49 -61 49 -6 0 -22 -14 -36 -31z"/>
<path d="M9820 4275 c-16 -19 -15 -71 1 -91 14 -17 70 -19 87 -2 7 7 12 28 12
48 0 20 -5 41 -12 48 -17 17 -73 15 -88 -3z"/>
<path d="M11454 4265 c-21 -32 -12 -67 20 -85 54 -28 104 51 60 94 -23 24 -61
20 -80 -9z"/>
<path d="M10761 4261 c-24 -24 -26 -40 -9 -76 22 -49 91 -41 104 12 16 62 -52
107 -95 64z"/>
<path d="M7286 4232 c-12 -36 -54 -68 -159 -121 -175 -87 -220 -143 -229 -288
l-5 -71 49 -53 c58 -63 73 -60 100 17 44 121 80 154 168 154 57 0 94 -17 125
-58 18 -24 20 -46 23 -184 l3 -158 -443 0 c-481 0 -471 -1 -486 55 -13 44 -14
245 -3 283 10 32 8 36 -37 78 -25 24 -49 44 -53 44 -4 0 -19 -14 -33 -31 -25
-29 -28 -30 -56 -17 -30 13 -31 15 -25 63 4 38 1 60 -14 90 -19 40 -19 40 -20
11 -1 -46 -37 -109 -73 -130 -62 -36 -127 -97 -152 -143 -51 -90 -51 -229 -2
-304 69 -103 234 -104 294 -2 l22 38 0 -87 c0 -78 -2 -88 -21 -98 -15 -9 -31
-8 -62 3 -41 14 -86 8 -88 -10 0 -4 -2 -16 -4 -26 -8 -42 64 -65 87 -27 16 25
20 25 68 -5 43 -27 79 -31 113 -13 39 20 45 34 48 99 1 35 4 67 6 71 2 4 18 1
36 -7 25 -10 135 -14 519 -15 267 0 498 2 512 6 22 5 25 10 18 33 -13 47 -9
378 6 393 6 6 12 15 12 18 0 8 -24 35 -68 74 l-32 30 -31 -23 c-31 -23 -31
-23 -77 -5 -71 28 -155 24 -220 -9 -30 -15 -56 -27 -58 -27 -2 0 -4 11 -4 25
0 58 85 145 141 145 13 0 39 -9 56 -20 l33 -19 11 20 c6 12 9 34 5 49 -3 17 2
42 14 66 12 23 17 47 13 63 -8 37 -20 46 -27 23z m-1033 -462 c25 -28 27 -36
26 -113 0 -68 -2 -79 -12 -63 -38 61 -85 74 -113 31 -30 -46 16 -101 53 -64
13 13 33 4 33 -15 0 -7 -9 -25 -21 -40 -27 -35 -80 -36 -114 -2 -29 29 -39 76
-33 159 8 131 106 189 181 107z"/>
<path d="M4585 4215 c-14 -13 -25 -36 -25 -50 0 -14 11 -37 25 -50 13 -14 36
-25 50 -25 14 0 37 11 50 25 14 13 25 36 25 50 0 14 -11 37 -25 50 -13 14 -36
25 -50 25 -14 0 -37 -11 -50 -25z"/>
<path d="M5246 4215 c-28 -26 -33 -54 -15 -88 16 -30 28 -37 71 -37 44 0 68
27 68 77 0 66 -73 95 -124 48z"/>
<path d="M8112 4141 c-8 -5 -12 -21 -10 -37 2 -25 8 -29 36 -32 29 -3 32 -6
32 -36 0 -56 -46 -132 -122 -199 -38 -34 -82 -82 -96 -107 -63 -106 -15 -268
95 -318 34 -15 91 -17 567 -20 304 -2 533 1 538 6 5 5 0 28 -13 55 l-22 46
-26 -20 -26 -20 -17 21 c-16 19 -18 44 -18 177 0 150 1 155 25 178 30 31 84
34 108 7 27 -29 22 -77 -10 -102 -22 -17 -25 -25 -17 -38 6 -9 19 -21 30 -26
18 -8 19 -17 16 -100 -3 -79 0 -95 18 -124 38 -62 49 -63 476 -60 309 2 386 6
393 16 7 12 14 11 39 -2 46 -24 507 -24 520 0 8 13 12 13 39 -2 28 -16 41 -17
129 -7 58 6 106 7 116 2 9 -5 55 -9 102 -9 65 0 88 4 101 17 14 14 18 14 26 2
6 -11 42 -15 155 -17 160 -4 278 4 269 19 -10 16 22 10 36 -7 11 -13 41 -15
221 -12 156 2 211 6 217 16 6 10 13 10 35 -2 39 -20 189 -21 206 -1 11 13 15
13 33 0 30 -21 217 -22 217 -1 0 12 6 12 38 0 22 -8 81 -13 145 -14 119 0 166
13 194 57 l16 24 17 -29 c10 -16 33 -34 51 -41 32 -11 281 -16 291 -5 3 3 1
22 -4 42 -6 20 -11 112 -12 203 -1 130 2 170 13 183 13 15 9 22 -35 67 -54 54
-58 54 -98 -5 -12 -18 -14 -18 -53 8 -40 27 -41 29 -41 85 0 40 -6 68 -18 87
l-19 28 -7 -46 c-9 -65 -18 -77 -94 -128 -110 -73 -122 -103 -123 -301 -1
-145 -5 -149 -130 -151 -134 -3 -133 -5 -130 214 l2 169 -33 40 c-38 44 -58
48 -86 18 -17 -19 -19 -41 -22 -230 l-3 -209 -34 0 c-58 0 -69 29 -73 196 -2
86 0 150 7 161 8 17 3 26 -32 61 -47 46 -53 48 -82 26 -19 -14 -20 -30 -25
-227 -5 -197 -6 -212 -24 -215 -31 -6 -66 19 -77 57 -12 40 -8 276 4 303 6 12
-2 28 -29 58 -45 50 -72 50 -96 0 -15 -30 -18 -64 -18 -226 0 -186 -1 -192
-21 -197 -12 -3 -80 -5 -151 -4 -122 2 -131 3 -148 25 -26 32 -33 91 -28 241
l4 128 -46 47 -45 47 -23 -21 c-21 -20 -22 -29 -23 -193 -1 -95 -1 -188 0
-207 3 -62 -4 -65 -145 -65 -172 0 -166 -9 -163 223 l1 174 -33 33 c-41 41
-61 43 -88 9 -20 -25 -21 -39 -21 -230 l0 -204 -33 0 c-57 0 -64 17 -72 186
-5 101 -4 158 3 171 9 17 4 26 -32 62 -32 32 -49 41 -63 37 -38 -12 -44 -43
-46 -251 l-2 -200 -25 -3 c-14 -1 -36 7 -50 17 -24 19 -25 23 -28 170 -2 101
0 157 8 171 10 20 7 27 -26 61 -45 46 -67 49 -91 12 -15 -23 -19 -58 -23 -233
l-5 -205 -186 0 c-202 0 -207 1 -229 60 -16 41 -13 265 4 297 14 26 13 29 -27
68 -23 22 -49 40 -59 40 -9 0 -28 -14 -42 -31 -26 -30 -27 -30 -51 -15 -20 13
-25 25 -25 59 0 24 -6 51 -13 60 -11 16 -14 15 -29 -11 -11 -19 -43 -42 -85
-63 -127 -63 -177 -129 -177 -234 0 -80 29 -136 92 -175 78 -49 151 -40 225
29 l38 36 -3 -59 -3 -58 -275 -4 c-296 -3 -347 2 -355 39 -14 66 -12 98 6 121
18 23 18 24 0 40 -9 9 -23 16 -29 16 -15 0 -15 6 3 55 29 80 11 142 -54 190
-46 33 -117 34 -173 3 -32 -18 -42 -20 -58 -10 -30 18 -37 16 -80 -30 -27 -29
-38 -48 -33 -58 10 -19 20 -352 12 -363 -4 -5 -177 -7 -385 -5 -333 3 -383 6
-411 21 -92 49 -111 169 -37 242 29 30 42 35 80 35 43 0 44 1 38 28 -4 15 -10
32 -15 37 -4 6 4 37 18 70 33 76 37 187 10 228 -18 27 -49 35 -75 18z m1771
-339 c27 -26 47 -76 47 -121 l0 -24 -25 27 c-35 37 -85 34 -99 -7 -14 -39 2
-61 50 -67 l39 -5 -27 -27 c-103 -105 -217 98 -121 213 45 54 86 57 136 11z
m3197 12 c17 -10 32 -31 38 -53 12 -40 19 -285 9 -288 -4 -2 -38 -3 -77 -3
-53 0 -70 3 -70 14 0 9 7 12 19 9 28 -7 56 38 41 66 -13 25 -61 28 -84 6 -8
-8 -17 -15 -20 -15 -12 0 -6 205 7 230 24 48 87 63 137 34z"/>
<path d="M11479 4143 c-44 -11 -49 -95 -6 -109 43 -15 77 8 77 51 0 21 -34 66
-48 64 -4 -1 -14 -3 -23 -6z"/>
<path d="M10845 4115 c-14 -13 -25 -30 -25 -38 0 -25 41 -67 65 -67 56 0 78
74 33 113 -27 23 -44 22 -73 -8z"/>
<path d="M10686 4114 c-34 -34 -10 -104 35 -104 54 0 83 52 54 96 -18 28 -65
33 -89 8z"/>
<path d="M3380 4089 c0 -68 -18 -97 -97 -155 -95 -71 -128 -107 -152 -169 -57
-152 -20 -297 89 -352 86 -44 192 -16 237 63 13 21 23 35 24 29 6 -41 5 -144
-2 -162 -11 -30 -51 -39 -92 -20 -43 21 -73 12 -86 -23 -19 -55 51 -98 81 -50
16 26 27 25 79 -5 24 -14 55 -25 69 -25 35 0 88 35 95 63 3 12 7 142 8 287 1
146 5 272 10 280 5 10 -6 30 -34 63 -50 57 -79 61 -106 17 -21 -35 -19 -35
-60 -11 -30 19 -31 22 -22 56 11 38 0 91 -27 130 -13 18 -14 17 -14 -16z m39
-263 c48 -25 61 -56 61 -148 l0 -83 -21 33 c-34 52 -99 55 -121 7 -9 -19 -7
-30 6 -51 17 -25 26 -27 69 -9 14 6 17 2 17 -22 0 -38 -31 -66 -69 -65 -73 2
-104 50 -103 163 0 89 27 149 77 174 38 18 49 19 84 1z"/>
<path d="M3907 3959 c-43 -25 -47 -53 -47 -347 0 -300 -2 -312 -50 -297 -28 9
-50 -11 -50 -46 0 -22 6 -30 25 -35 14 -3 32 -1 40 6 11 9 19 8 37 -4 30 -22
90 -20 116 2 34 30 41 93 42 363 0 178 3 258 11 266 9 9 0 23 -35 57 -49 48
-59 52 -89 35z"/>
<path d="M4584 3909 c-17 -19 -19 -44 -24 -303 l-5 -281 -39 -5 c-75 -10 -75
-73 0 -77 21 -1 59 -5 84 -8 40 -6 48 -4 70 20 18 19 26 41 30 81 l5 55 323
-1 c315 0 324 0 329 19 5 19 8 19 32 7 31 -16 325 -32 395 -22 l45 7 -15 41
c-16 47 -20 363 -4 388 7 11 -1 26 -32 57 -49 50 -69 53 -97 17 -20 -25 -21
-39 -21 -230 l0 -204 -121 0 c-66 0 -129 4 -139 10 -30 16 -40 66 -40 196 0
102 3 125 17 139 16 16 14 20 -35 66 -29 27 -58 49 -65 49 -8 0 -23 -10 -35
-23 -21 -22 -22 -32 -22 -230 l0 -207 -260 0 -260 0 0 174 c0 138 3 178 14
189 13 12 9 20 -28 56 -47 46 -74 51 -102 20z"/>
<path d="M2792 3338 c-27 -14 -38 -51 -24 -83 14 -30 45 -39 79 -23 22 10 29
21 31 49 4 51 -39 79 -86 57z"/>
<path d="M2938 3339 c-43 -25 -42 -85 2 -109 61 -33 119 51 70 100 -22 22 -46
25 -72 9z"/>
<path d="M5604 3285 c-20 -30 -12 -70 16 -85 27 -14 57 -4 76 25 13 19 13 28
3 47 -24 46 -69 52 -95 13z"/>
<path d="M5748 3296 c-26 -19 -23 -71 4 -90 29 -20 41 -20 68 2 61 49 -10 135
-72 88z"/>
<path d="M3553 3092 l-2601 -2 -12 -70 c-11 -66 -11 -71 11 -101 12 -17 37
-38 55 -45 50 -21 12308 -21 12358 0 47 19 66 51 66 109 0 40 -5 53 -29 78
l-29 29 -3595 0 c-1978 0 -3601 1 -3609 3 -7 1 -1184 1 -2615 -1z"/>
<path d="M1186 2635 c-8 -41 8 -77 53 -119 35 -33 33 -39 -15 -62 -59 -28
-129 -99 -155 -156 -19 -44 -23 -69 -22 -143 1 -110 17 -156 85 -250 28 -38
51 -78 50 -88 -1 -13 4 -16 19 -12 11 4 41 -4 72 -18 83 -39 149 -50 248 -43
82 6 89 5 123 -18 20 -13 42 -27 49 -30 7 -3 -3 -18 -28 -41 -53 -48 -125 -69
-250 -69 -85 -1 -107 2 -147 22 -63 31 -90 69 -90 130 l-1 47 -9 -35 c-37
-132 144 -247 331 -210 99 19 144 44 190 105 22 29 59 64 83 77 38 21 88 77
88 100 0 5 -14 1 -30 -9 -28 -16 -33 -16 -58 -2 -33 19 -31 33 15 101 48 71
68 120 82 199 16 95 14 152 -10 242 -64 235 -258 341 -519 281 -89 -20 -124
-16 -128 14 -5 33 -19 27 -26 -13z m279 -174 c106 -9 157 -32 208 -92 101
-118 122 -292 55 -462 -11 -28 -12 -28 -68 -22 -63 7 -99 -5 -136 -47 -41 -45
-38 -71 6 -48 13 7 21 6 30 -5 9 -11 7 -16 -11 -25 -46 -25 -155 9 -212 65
-40 41 -35 49 30 42 43 -5 62 -12 75 -29 l19 -23 45 50 c70 78 99 146 99 231
0 69 -1 72 -57 155 -40 60 -58 98 -63 132 -4 26 -11 47 -15 47 -22 0 -61 -47
-79 -96 -38 -101 -26 -167 55 -284 29 -44 54 -90 54 -104 0 -52 -4 -53 -113
-50 l-101 3 -17 33 c-58 116 -60 387 -2 501 16 32 47 48 83 41 14 -2 66 -8
115 -13z"/>
<path d="M6230 2411 c-57 -12 -129 -53 -165 -93 -61 -67 -79 -120 -83 -240 -3
-97 -1 -113 21 -161 33 -74 79 -121 145 -154 47 -23 73 -28 155 -31 89 -4 106
-2 167 22 79 31 148 97 183 174 31 69 31 246 0 313 -27 60 -93 126 -152 152
-50 22 -205 33 -271 18z m178 -52 c79 -39 112 -125 113 -291 0 -59 -5 -125
-11 -146 -32 -121 -136 -179 -245 -137 -83 31 -123 112 -132 265 -6 112 14
216 52 265 49 65 141 83 223 44z"/>
<path d="M4722 2395 c-100 -43 -142 -119 -121 -216 13 -60 50 -97 142 -142
126 -62 166 -115 134 -183 -23 -47 -58 -67 -121 -68 -67 -1 -82 12 -96 77 -12
61 -22 78 -36 69 -17 -11 -33 -140 -20 -157 6 -8 38 -20 71 -26 112 -21 229 6
289 66 35 35 46 65 46 125 0 94 -27 127 -161 196 -100 51 -124 78 -124 137 0
32 7 45 33 69 30 26 39 29 89 26 l56 -3 15 -45 c30 -94 41 -96 58 -13 7 32 13
63 13 70 2 32 -203 45 -267 18z"/>
<path d="M5340 2399 c0 -5 16 -15 35 -23 l35 -15 -2 -288 -3 -287 -32 -10
c-35 -10 -44 -25 -15 -27 64 -4 243 -1 248 4 3 3 -8 13 -25 22 l-31 16 0 129
c0 122 1 130 19 130 22 0 54 -39 98 -120 97 -178 130 -204 246 -193 37 3 67 9
67 12 0 3 -20 18 -44 32 -34 21 -57 50 -117 149 -41 68 -75 127 -77 131 -2 4
18 19 43 34 84 49 115 138 76 219 -18 36 -32 48 -74 67 -48 22 -65 24 -249 25
-109 1 -198 -2 -198 -7z m346 -58 c24 -18 44 -73 43 -117 -2 -84 -53 -134
-136 -134 l-43 0 0 134 c0 120 2 135 18 139 28 8 95 -4 118 -22z"/>
<path d="M6650 2396 c0 -8 13 -17 29 -21 40 -8 56 -30 146 -189 l78 -139 1
-126 1 -125 -30 -15 c-16 -9 -32 -17 -34 -18 -19 -12 31 -18 140 -19 135 0
156 8 98 36 l-32 15 -2 124 -2 125 35 65 c31 61 61 115 114 212 14 25 33 42
60 53 22 8 37 19 34 24 -3 6 -48 10 -100 11 -101 2 -131 -11 -77 -32 17 -6 31
-19 31 -28 0 -21 -108 -239 -118 -239 -5 0 -18 19 -31 43 -12 23 -40 74 -62
113 -21 39 -39 78 -39 86 0 8 14 19 31 24 65 19 27 29 -121 32 -126 2 -150 0
-150 -12z"/>
<path d="M7465 2381 c-8 -16 -49 -114 -90 -216 -97 -241 -146 -357 -157 -372
-5 -6 -23 -15 -39 -18 -16 -4 -29 -12 -29 -19 0 -8 28 -12 100 -13 78 0 100 3
100 13 0 8 -6 14 -13 14 -7 0 -21 6 -31 13 -17 12 -17 16 -3 58 9 24 23 61 31
82 l16 37 88 0 c48 0 93 -4 99 -8 15 -10 53 -116 53 -148 0 -16 -9 -25 -32
-33 -17 -6 -28 -14 -25 -18 9 -9 288 -10 293 -1 3 4 -15 15 -39 26 -49 22 -38
-2 -142 297 -37 105 -78 218 -91 252 -13 34 -24 66 -24 72 0 6 -11 11 -25 11
-17 0 -29 -9 -40 -29z m24 -264 c17 -50 31 -98 31 -105 0 -8 -22 -12 -75 -12
-41 0 -75 3 -75 7 0 16 75 203 82 203 3 0 20 -42 37 -93z"/>
<path d="M7845 2401 c-3 -6 10 -17 28 -25 24 -10 36 -22 40 -42 9 -44 6 -517
-4 -535 -5 -9 -23 -22 -40 -28 -18 -6 -29 -14 -25 -18 4 -4 111 -8 237 -9
l230 -2 10 25 c12 31 12 163 0 163 -5 0 -25 -30 -43 -67 l-34 -68 -95 0 -94 0
-3 265 c-1 146 0 274 3 286 3 13 17 25 36 30 17 5 30 14 30 19 -1 14 -267 19
-276 6z"/>
<path d="M9544 2396 c-109 -26 -187 -95 -225 -196 -31 -82 -24 -224 14 -303
66 -133 236 -198 405 -153 162 43 245 159 246 341 0 97 -17 153 -70 222 -64
84 -229 123 -370 89z m172 -45 c82 -37 118 -124 117 -282 -1 -130 -24 -208
-73 -253 -83 -75 -217 -49 -269 53 -42 81 -53 272 -22 373 33 107 144 156 247
109z"/>
<path d="M1960 2391 c0 -4 15 -12 33 -17 l32 -10 6 -224 c6 -251 15 -289 78
-343 87 -73 291 -75 373 -4 16 14 38 46 50 73 20 44 23 70 28 269 l5 220 33
14 c17 8 32 18 32 23 0 4 -45 8 -100 8 -55 0 -100 -3 -100 -7 0 -5 15 -15 33
-23 l32 -15 3 -204 c3 -222 -6 -278 -51 -318 -50 -46 -157 -55 -213 -18 -14 9
-34 35 -45 58 -16 37 -19 68 -19 264 l0 222 35 12 c19 7 35 17 35 21 0 4 -63
8 -140 8 -77 0 -140 -4 -140 -9z"/>
<path d="M2700 2391 c0 -4 15 -12 33 -17 l32 -10 0 -284 0 -285 -32 -10 c-18
-5 -33 -13 -33 -17 0 -4 106 -8 235 -8 l235 0 0 34 c0 18 3 54 6 80 9 65 -16
63 -45 -4 l-22 -50 -100 0 -100 0 3 123 3 122 43 3 c51 4 89 -17 94 -49 2 -13
9 -24 16 -27 9 -3 12 20 12 93 0 72 -3 96 -12 93 -7 -3 -17 -19 -22 -36 -9
-32 -10 -32 -73 -32 l-64 0 3 123 3 122 87 3 87 3 16 -56 c9 -31 22 -54 28
-52 9 3 34 96 36 135 1 9 -52 12 -234 12 -129 0 -235 -4 -235 -9z"/>
<path d="M3270 2392 c0 -5 15 -15 33 -23 l32 -14 0 -275 0 -275 -32 -15 c-18
-8 -33 -18 -33 -22 0 -5 106 -8 235 -8 l235 0 0 23 c1 12 3 48 6 80 8 74 -13
78 -46 8 l-23 -50 -98 -3 -99 -3 0 128 0 127 54 0 c57 0 70 -8 81 -53 4 -15
13 -27 21 -27 11 0 14 21 14 95 0 73 -3 95 -14 95 -7 0 -17 -15 -22 -32 -9
-31 -13 -33 -62 -38 -29 -3 -57 -3 -62 0 -7 4 -13 132 -11 228 1 21 5 22 85
22 93 0 98 -3 115 -67 7 -24 16 -43 21 -43 5 0 14 26 20 58 6 31 14 65 16 75
5 16 -11 17 -230 17 -130 0 -236 -4 -236 -8z"/>
<path d="M3870 2392 c0 -5 15 -15 33 -23 l32 -14 3 -274 c2 -252 1 -275 -15
-287 -10 -7 -26 -14 -35 -14 -10 0 -18 -4 -18 -10 0 -6 40 -10 100 -10 55 0
100 2 100 6 0 3 -16 12 -35 20 l-35 14 0 220 c0 121 3 220 6 220 4 0 12 -6 18
-14 6 -8 72 -90 147 -183 74 -92 155 -194 178 -225 35 -47 49 -58 72 -58 l29
0 0 294 c0 315 -1 308 53 321 55 14 24 25 -73 25 -98 0 -131 -12 -72 -26 15
-4 30 -12 34 -18 4 -6 7 -89 7 -185 -1 -134 2 -176 13 -182 10 -7 10 -9 -3 -9
-24 0 -42 19 -208 228 l-153 192 -89 0 c-49 0 -89 -4 -89 -8z"/>
<path d="M10270 2394 c-81 -25 -138 -86 -147 -155 -13 -97 29 -156 155 -217
118 -57 146 -96 123 -172 -13 -45 -63 -73 -128 -73 -56 0 -77 20 -92 88 -21
93 -42 78 -56 -42 l-7 -62 42 -11 c69 -19 198 -16 250 6 83 34 130 99 130 180
0 80 -44 130 -168 195 -97 50 -122 76 -122 130 0 61 33 92 108 97 55 4 61 2
75 -19 9 -13 19 -41 22 -62 4 -20 11 -40 16 -42 15 -10 30 35 32 93 2 55 1 57
-28 63 -35 8 -183 10 -205 3z"/>
<path d="M12452 2392 c-12 -8 -46 -85 -147 -332 -112 -274 -106 -262 -147
-279 -21 -9 -38 -19 -38 -23 0 -5 45 -8 100 -8 95 0 127 10 78 26 -35 10 -37
22 -18 79 34 99 28 95 138 95 l98 0 24 -76 c23 -74 23 -77 5 -90 -10 -8 -25
-14 -32 -14 -7 0 -13 -4 -13 -10 0 -6 53 -10 140 -10 77 0 140 3 140 8 0 4
-18 15 -39 25 -36 16 -40 23 -76 125 -41 121 -140 399 -160 452 -13 36 -30 46
-53 32z m6 -286 c17 -52 32 -97 32 -100 0 -3 -34 -6 -76 -6 -74 0 -75 1 -68
23 19 61 67 177 72 177 4 0 22 -42 40 -94z"/>
<path d="M8550 2381 c0 -4 15 -12 33 -17 l32 -10 0 -284 0 -284 -32 -8 c-69
-18 -31 -28 102 -28 134 0 163 8 105 29 l-31 10 3 138 3 138 135 0 135 0 3
-129 c2 -109 0 -132 -14 -147 -10 -11 -23 -19 -31 -19 -7 0 -13 -4 -13 -10 0
-6 52 -10 138 -10 123 1 135 2 118 15 -11 8 -26 15 -33 15 -7 0 -17 9 -23 19
-13 26 -14 516 0 541 5 10 23 21 40 25 67 15 23 25 -105 25 -74 0 -135 -4
-135 -8 0 -4 14 -13 30 -19 l31 -12 -3 -118 -3 -118 -135 0 -135 0 -3 118 -3
118 31 10 c58 21 29 29 -105 29 -74 0 -135 -4 -135 -9z"/>
<path d="M10624 2375 c11 -8 26 -15 33 -15 28 0 33 -43 33 -304 l0 -264 -35
-12 c-65 -22 -36 -30 105 -30 141 0 170 8 105 30 l-35 12 -2 89 c-1 49 -2 99
-2 112 -1 21 4 22 91 28 79 5 99 10 139 35 59 36 94 98 94 163 0 69 -27 111
-90 144 -53 27 -55 27 -254 27 -179 -1 -199 -2 -182 -15z m333 -44 c67 -56 56
-222 -17 -261 -11 -6 -42 -10 -68 -8 l-47 3 -3 129 c-1 72 0 136 2 143 8 21
106 16 133 -6z"/>
<path d="M11200 2381 c0 -5 14 -12 31 -16 18 -4 33 -15 38 -28 4 -12 5 -141 2
-287 l-6 -264 -32 -10 c-64 -18 -31 -26 107 -26 77 0 140 3 140 8 0 4 -15 14
-33 22 l-32 15 0 280 0 279 33 10 c63 18 30 26 -108 26 -79 0 -140 -4 -140 -9z"/>
<path d="M11584 2338 c3 -29 6 -67 6 -85 0 -43 22 -35 39 15 26 74 35 82 100
82 44 0 60 -4 65 -16 7 -19 6 -289 -3 -439 l-6 -109 -37 -9 c-75 -18 -35 -27
112 -27 83 0 150 4 150 8 0 5 -18 14 -40 21 l-40 12 2 277 3 277 62 3 c70 3
68 5 92 -86 7 -23 16 -40 21 -37 5 3 14 31 20 63 6 31 13 67 16 80 l4 22 -286
0 -287 0 7 -52z"/>
<path d="M12894 2375 c11 -8 25 -15 32 -15 6 0 15 -7 18 -16 3 -9 6 -136 6
-283 l0 -267 -37 -20 -38 -19 234 -3 c129 -1 235 -1 237 0 1 2 5 40 9 86 6 68
5 82 -7 82 -8 0 -25 -23 -39 -52 -35 -76 -39 -78 -135 -78 l-84 0 0 281 0 280
30 10 c59 21 28 29 -107 29 -124 -1 -136 -2 -119 -15z"/>
</g>
</svg>
